<svg version="1.1" id="Layer_1" xmlns="http://www.w3.org/2000/svg" xmlns:xlink="http://www.w3.org/1999/xlink" x="0px" y="0px" viewBox="0 0 250 100" style="enable-background:new 0 0 250 100;" xml:space="preserve">
<style type="text/css">
	.st0{fill:#E87200;}
	.st1{fill:#0055B8;}
	.st2{fill:#002856;}
	.st3{fill:#FFFFFF;}
</style>
<g>
	<g>
		<path class="st1" d="M77.9,43c0.1-0.3,0.3-0.5,0.4-0.6c0.2-0.1,0.4-0.2,0.6-0.2l-1,1.9l-1.5,2.8c-0.6,1.1-1.2,1.9-1.7,2.4
			c-0.7,0.6-1.5,0.9-2.5,1c0,1.2-0.1,2.4-0.2,3.5c-0.1,0.5-0.2,1.1-0.3,1.7c-0.2,0.7-0.4,1.4-0.6,1.9c-0.3,0.7-0.6,1.2-1,1.6
			c-0.4,0.4-0.9,0.7-1.4,0.7s-0.8-0.3-0.9-1c0-0.3-0.1-0.6-0.1-0.9c0-0.3,0-0.6,0.1-0.9c0.2-1.6,0.8-3.8,1.7-6.6
			c0.9-2.8,3.8-10.1,4.9-11.8c1.2-2,2.2-3,3-3c0.4,0,0.7,0.1,0.9,0.3c0.2,0.2,0.3,0.5,0.3,0.9c0,0.2-0.1,0.3-0.1,0.5
			c-0.1-0.2-0.2-0.4-0.5-0.4s-0.7,0.4-1.2,1.3c-0.5,0.8-1.9,4.2-2.7,6.1c-0.5,1.2-0.7,1.6-1.6,3.9c0.1,0.2,0.2,0.4,0.3,0.5
			c0.2,0.2,0.3,0.2,0.6,0.2c0.6,0,1.1-0.2,1.5-0.6c0.3-0.3,0.7-0.8,1.1-1.6L77.9,43z M69.1,58.4L69.1,58.4
			C69.2,58.5,69.2,58.5,69.1,58.4c0.3,0.1,0.5-0.1,0.7-0.4s0.4-0.8,0.6-1.4c0.5-1.3,0.8-2.7,1-4.4c0-0.2,0.1-0.6,0.1-0.9v-0.5
			c0-0.2,0-0.4,0-0.5c-1.5,3.9-2.4,6.4-2.5,7.6C69.1,58.2,69.1,58.3,69.1,58.4z"/>
		<path class="st1" d="M86,43c0.1-0.3,0.3-0.5,0.5-0.6s0.4-0.2,0.6-0.2l-0.7,1.3c-0.6,1.1-1.1,1.9-1.7,2.4C84,46.6,83.1,47,82.2,47
			c-0.5,1.1-1.2,2-2,2.8c-0.4,0.4-0.9,0.7-1.3,1c-0.5,0.2-1,0.4-1.5,0.4c-0.3,0-0.6-0.1-0.9-0.3s-0.6-0.4-0.8-0.7
			c-0.2-0.3-0.4-0.7-0.5-1.1c-0.1-0.5-0.1-0.9,0-1.5c0.1-0.7,0.3-1.5,0.6-2.3c0.3-0.8,0.7-1.6,1.1-2.3s0.9-1.3,1.4-1.8
			s1-0.7,1.5-0.7c0.2,0,0.4,0.1,0.5,0.2c0.2-0.1,0.4-0.2,0.6-0.2c0.3,0,0.6,0.1,0.9,0.3s0.6,0.4,0.8,0.7c0.2,0.3,0.4,0.7,0.5,1.1
			c0.1,0.4,0.1,0.9,0,1.5c-0.1,0.7-0.3,1.5-0.6,2.2c0.6-0.1,1.2-0.4,1.8-0.9c0.5-0.5,1-1.1,1.4-1.9L86,43z M77.5,48.9
			c0.1,0.4,0.3,0.6,0.5,0.6c0.3,0,0.7-0.3,1.1-0.9c0.4-0.6,0.8-1.3,1.1-2.1c-0.4-0.3-0.7-0.7-1-1.2c-0.2-0.5-0.3-1-0.3-1.6
			c-0.7,1.2-1.2,2.5-1.4,3.9C77.4,48.2,77.4,48.6,77.5,48.9z M80.8,43.3c0-0.3-0.1-0.5-0.3-0.7c-0.2,0.1-0.3,0.3-0.4,0.8
			c0,0.4,0,0.7,0,1.1c0.1,0.4,0.2,0.7,0.3,0.9c0.1-0.4,0.2-0.9,0.3-1.3C80.9,43.8,80.9,43.5,80.8,43.3z"/>
		<path class="st1" d="M87.2,42.3c0.2,0,0.3,0,0.5-0.1c0.1-0.1,0.2-0.2,0.3-0.3l0.1-0.2c0.1-0.2,0.2-0.2,0.4-0.2
			c0.1,0,0.3,0,0.5,0.1s0.4,0.1,0.6,0.2c0.5,0.2,0.7,0.4,0.7,0.7c0,0.2-0.2,0.5-0.4,1.1c-0.1,0.2-0.3,0.7-0.7,1.5
			c-0.4,0.8-0.7,1.5-0.9,2c-0.3,0.7-0.4,1.2-0.5,1.7c0,0.3,0,0.5,0.1,0.6c0.1,0.2,0.2,0.3,0.4,0.3c0.6,0,1.2-0.3,1.8-1
			c0.4-0.4,0.8-1,1.2-1.7l1.9-3.7c0.1-0.3,0.3-0.5,0.4-0.6c0.2-0.1,0.4-0.2,0.6-0.2l-2.5,4.7c-0.4,0.8-0.8,1.5-1.3,2
			c-1.1,1.4-2.2,2.1-3.4,2.1c-0.6,0-1-0.3-1.3-0.9c-0.2-0.5-0.3-1-0.2-1.7c0.1-0.8,0.4-1.7,0.7-2.8c0.3-0.8,0.6-1.7,1.1-2.8
			c-0.2,0.2-0.5,0.4-0.8,0.5c-0.3,0.2-0.6,0.2-0.8,0.2c-0.5,0-0.9-0.2-1.1-0.6c-0.2-0.4-0.2-0.8-0.1-1.5c0.1-0.6,0.3-1,0.6-1.5
			c0.1-0.2,0.3-0.3,0.4-0.4c0.1-0.1,0.3-0.2,0.4-0.2c0.3,0,0.6,0.2,0.9,0.6c0.1,0.2,0.2,0.3,0.3,0.5c0.1,0.2,0.1,0.3,0.1,0.4
			c0,0.1-0.1,0.3-0.2,0.5c0,0.1-0.1,0.2-0.2,0.3c0,0.1-0.1,0.1-0.1,0.2c0,0.1-0.1,0.2-0.1,0.2C86.9,42.3,87.1,42.3,87.2,42.3z"/>
	</g>
	<g>
		<path class="st0" d="M98.6,57.7v6h-1v-6h-2v-1h4.9v1H98.6z"/>
		<path class="st0" d="M107.6,60.2c0,2-1.4,3.6-3.3,3.6s-3.3-1.6-3.3-3.6s1.4-3.6,3.3-3.6C106.1,56.6,107.6,58.2,107.6,60.2z
			 M106.5,60.2c0-1.4-1-2.6-2.2-2.6c-1.3,0-2.2,1.1-2.2,2.6s1,2.6,2.2,2.6C105.6,62.8,106.5,61.7,106.5,60.2z"/>
		<path class="st0" d="M111.3,63.8v-7h4.5v1h-3.5v1.9h3v0.9h-3v2.2h3.6v1H111.3z"/>
		<path class="st0" d="M118,58.4v5.4h-1v-7h1.1l3.4,5.2v-5.2h1v7h-1L118,58.4z"/>
		<path class="st0" d="M125.9,56.7c2,0,3.4,1.5,3.4,3.5s-1.5,3.5-3.5,3.5h-2.1v-7H125.9z M124.8,62.8h1.1c1.4,0,2.4-1.1,2.4-2.5
			s-1-2.5-2.4-2.5h-1.1V62.8z"/>
		<path class="st0" d="M136.8,56.6c1.6,0,2.4,1.1,2.4,1.1l-0.8,0.7c0,0-0.6-0.8-1.6-0.8c-1.3,0-2.2,1.1-2.2,2.6s1,2.6,2.2,2.6
			c1.1,0,1.7-0.9,1.7-0.9l0.7,0.7c0,0-0.8,1.2-2.5,1.2c-1.9,0-3.3-1.6-3.3-3.6S135,56.6,136.8,56.6z"/>
		<path class="st0" d="M146.1,63.8H145l-0.6-1.8h-2.8l-0.6,1.8h-1.1l2.6-7h1L146.1,63.8z M141.9,61.1h2.2l-1.1-3L141.9,61.1z"/>
		<path class="st0" d="M148.1,58.4v5.4h-1v-7h1.1l3.4,5.2v-5.2h1v7h-1L148.1,58.4z"/>
		<path class="st0" d="M157,56.6c1.6,0,2.4,1.1,2.4,1.1l-0.8,0.7c0,0-0.6-0.8-1.6-0.8c-1.3,0-2.2,1.1-2.2,2.6s1,2.6,2.2,2.6
			c1.1,0,1.7-0.9,1.7-0.9l0.7,0.7c0,0-0.8,1.2-2.5,1.2c-1.9,0-3.3-1.6-3.3-3.6S155.2,56.6,157,56.6z"/>
		<path class="st0" d="M160.6,63.8v-7h4.5v1h-3.5v1.9h3v0.9h-3v2.2h3.6v1H160.6z"/>
		<path class="st0" d="M166.4,56.7h2.7c1.3,0,2.2,0.9,2.2,2.2c0,1-0.6,1.8-1.4,2.1l1.7,2.7h-1.2l-1.6-2.6h-1.3v2.7h-1L166.4,56.7
			L166.4,56.7z M167.5,57.7v2.6h1.6c0.8,0,1.3-0.5,1.3-1.3c0-0.7-0.5-1.3-1.3-1.3H167.5z"/>
	</g>
	<g>
		<path class="st1" d="M102.7,34.1c3.2,0,5.5,2.2,5.5,5.5c0,2.4-1.2,4.3-3.2,5.1l3.8,6.3H105l-3.4-5.8h-2.3V51H96V34.1H102.7z
			 M99.2,42.3h3.1c1.6,0,2.6-1.1,2.6-2.5c0-1.5-1-2.5-2.6-2.5h-3.1V42.3z"/>
		<path class="st1" d="M126,42.4c0,4.9-3.5,8.7-8,8.7s-7.9-3.7-7.9-8.6s3.5-8.7,8-8.7C122.6,33.8,126,37.6,126,42.4z M122.7,42.5
			c0-3-2-5.3-4.7-5.3s-4.7,2.3-4.7,5.3s2,5.3,4.7,5.3S122.7,45.5,122.7,42.5z"/>
		<path class="st1" d="M138.4,46.1c0,2.8-2.2,5-5.5,5c-3.8,0-5.8-2.5-5.8-2.5l1.9-2.3c0,0,1.7,1.9,4,1.9c1.1,0,1.9-0.7,1.9-1.7
			c0-1.1-0.7-1.8-3.4-3.1c-2.1-0.9-3.6-2.4-3.6-4.8c0-2.7,2.1-4.8,5.3-4.8c3.3,0,5.1,2.2,5.1,2.2l-1.9,2.3c0,0-1.3-1.5-3.1-1.5
			c-1.3,0-1.9,0.8-1.9,1.5c0,1,0.6,1.6,2.7,2.5C136.4,41.8,138.4,43.3,138.4,46.1z"/>
		<path class="st1" d="M142.6,34.1l3.2,11.2l3-11.2h2.4l3,11.2l3.2-11.2h3.5l-5.1,16.8h-2.9L150,40.3l-3,10.6h-2.9L139,34.1H142.6z"
			/>
		<path class="st1" d="M162.2,34.1h11.1v3.2h-7.8v3.5h6.8v3h-6.8v4h8.1V51h-11.4L162.2,34.1L162.2,34.1z"/>
		<path class="st1" d="M176.1,34.1h3.3v13.6h7.4V51h-10.7V34.1z"/>
		<path class="st1" d="M188.6,34.1h3.3v13.6h7.4V51h-10.7V34.1z"/>
	</g>
	<g>
		<path class="st0" d="M65.9,10.2c-0.3-0.7-0.8-0.8-0.9-1.4c0-0.1,0.5,0.8,0.8,0.3c0.6-1,0-1.3-0.5-2.3c-0.4-1-1.2-1.1-1.3-1
			c-0.1,0.1,0.9,0.6,0.6,1.3c-0.1,0.2-0.7-0.6-1-0.6c-0.1,0,0.1-0.6,0-0.5c-0.2,0.2-0.4,0.3-0.7,0.3c-1,0-1-1.1-1.3-1.2
			c-0.1,0.1-0.4,1.8,1.3,2.3c0.4,0.1-0.1,0.4-0.8,0.1c-0.1,0,0.5,0.9,1,0.8c0.2,0,0.3,0.8-0.5,0.5C62.3,8.7,62.1,8.2,62,8
			s-0.2-0.3-0.4-0.2c0.1,0.2,0,1.4,1,1.9c0.1,0,0.8,0.2,0.4,0.9l0,0c-0.1-0.1,0-0.6-0.7-0.8c-0.4-0.1-0.5,0-1.1-0.3
			s-0.6-1.7-0.8-1.8c-0.1,0.3-0.4,1-0.1,1.5c0.3,0.5,0.4,0.9,0.3,1.1c-0.1-0.1-0.1-0.2-0.2-0.3c-0.1-0.6-0.5-1-1.2-0.9
			c0,0.2,0.8,0.7,0.9,1.8c0.1,0.8,1,0.6,1.1,0.6c0.5-0.2,1-0.4,1.5-0.6c0.1,0,0.1,0,0.2,0c-0.1,0.1-0.2,0.3-0.1,0.3
			c0.6-0.1,0.6,0.4,1.2,0.4c0.3,0,0.8-0.9,0.5-1.4C64.3,9.9,65.9,12,66,12C65.8,11.8,66.3,10.9,65.9,10.2"/>
		<path class="st0" d="M60.8,7c0,0-0.7-0.1-0.6-0.5c0.1-0.4,0-1.2,0-1.2S61,6.2,61,6.5C61,6.7,61,6.9,60.8,7"/>
		<path class="st0" d="M63.7,5c0,0-1.2,0.6-1.5-0.4c-0.2-0.8-0.4-1.8-0.1-1.5c0.2,0.2,0.4,1,0.9,1.4C63.4,4.9,64.1,4.8,63.7,5"/>
		<path class="st0" d="M62.8,18.3c0,0,0-0.7-0.1-0.7c-0.1-0.2-1.2-1.8-1.2-1.8c0-0.1-0.1-0.2-0.1-0.3c-0.1-0.5-0.2-1-0.3-1.5
			c-0.1-0.7-0.3-1.4-0.4-2.2c0-0.2,0-0.5,0.1-0.7c0.4-0.6,4.5-0.6,4.9,0c0.1,0.2,0.2,0.4,0.1,0.7c-0.1,0.7-0.3,1.4-0.4,2.2
			c-0.1,0.5-0.2,1-0.3,1.5c0,0.1-0.1,0.2-0.1,0.3c0,0-1.1,1.7-1.2,1.8c0,0.1-0.1,0.7-0.1,0.7H62.8z"/>
	</g>
	<g>
		<path class="st1" d="M53.8,54.6c-2.1-1.6-6.3,0.8-9.4,5.5c-3.4,5.1-3.7,10-2,11.1c2.3,1.7,6.5-1.1,9.6-5.8
			C55.1,60.8,55.8,56.2,53.8,54.6 M52.8,66.2c-3.1,5.7-7.5,9.1-10.1,7.4c-2.6-1.7-2.3-7.6,0.7-13.3c3-5.8,7.7-9.2,10.3-7.5
			C56.2,54.5,55.8,60.5,52.8,66.2"/>
		<path class="st1" d="M62.5,20.8l1.3-0.4c0,0,0.5-1.1,0.4-1.8c-0.1-0.7-1.2-1.1-2-0.2c-0.1,0.1-1.7,3.6-1.7,3.6s-2.8,5.9-3,6.4
			s-1.6,3.4-1.7,3.8c-0.1,0.4-0.6,1.2,0.4,3.6c1.2,3.2-2.6,8.4-3.2,9.3c-0.5,0.9-1.6,2.5-0.3,4.2c0,0,1,1.6,3.6,2.2
			c0.6,0.2,4.8,0.8,5.1,1.1s1.1,1.1-0.4,3s-5.5,6.8-5,9.3c0.4,1.8,2.1,0.7,1.9,0.6c-0.2-0.2-1.1-0.4-0.4-1.9
			c1.2-2.6,4.7-6.8,5.3-7.8c0.5-0.8,1-2.1,0.3-2.9c-0.6-0.8-1.7-1.2-4.4-1.6c-2.6-0.3-5-1.7-5.4-2.5c-1-1.9,5.3-7.9,4.6-10.6
			s-1.7-3.3-1.2-5.2c0,0,0.5-1.1,2.6-4.4c2.4-3.7,2.2-5.9,2.5-6.9C62,20.8,62.5,20.8,62.5,20.8"/>
		<path class="st1" d="M59.8,30.8c0.1,0.1,0.3,1,0.9,0.8c1.1-0.4,1,0.7,2.2,0.9c0.7,0.1,2.3-0.3,2.6-0.1c0.3,0.2,0.2-0.6-0.7-0.5
			c-2.1,0.1-2.2-0.7-3-1C61.2,30.7,59.7,30.7,59.8,30.8"/>
		<path class="st1" d="M60,30.2c0,0,1.6-0.4,3.2,0c1.7,0.4,2.1,1.7,2.1,1.7h-0.9c0,0,1.8,0.9,2.1,0.9S66,31.9,66,31.9
			s-0.1-4.4-7.3-3.2C58.8,28.7,59.2,29.7,60,30.2z"/>
		<path class="st1" d="M61.8,35.2c0,0,0.7,0.6,1.2,0.5s1.5-2.3,1.7-2.6s0.5-0.7,0.7-0.8c0.3-0.1-0.4-0.1-0.5-0.1s-0.6,0-0.7,0.1
			c-0.1,0.1-0.8,2.7-1.6,2.8C62.2,35.1,61.8,35.2,61.8,35.2z"/>
		<path class="st1" d="M63.7,46.8c0-0.8,0.3-1.4,1.8-4.6c1.5-3.2,0.8-4.1-0.1-5.1c-0.3-0.3-1.6-1.3-2-1.3S63,36,63.2,36.2
			c0,0,1.9,1,2.1,2.3c0.3,1.5-0.1,1.6-1.2,4.1c-1.1,2.6-2,4.4-1.2,5.7l0.6,1c0,0-4-0.4-4.2-2c-0.2-2,5.5-5.8,4.6-8.8
			c-0.3-1.1-1.2-1.4-2.1-2c-2.2-1.4-1.2-2.8-2.2-2.3c-1.1,0.6,1.5,2.6,2,3c1.9,1.7,0.6,4.3-2,7.2s-1.6,5,2.7,6c0,0,2.4-0.2,3.5-0.2
			c0,0-0.8-0.8-1.4-1.7C64,48.1,63.7,47.6,63.7,46.8z"/>
		<path class="st1" d="M51.9,51.4l5.3,0.4c0,0,0.3-0.2,0.2-0.3c0-0.1-2-0.6-3-0.9c-1-0.3-2.3-0.6-2.7-0.6c-0.4,0.1-0.6,0.1-0.5,0.6
			C51.4,51.2,51.9,51.4,51.9,51.4z"/>
		<path class="st1" d="M56.8,51.7c0-0.2-0.9-0.4-1.3-0.1l-8.3,11.3c0,0,0.4,0.3,0.6,0.1C48.1,62.7,56.8,51.7,56.8,51.7z"/>
		<path class="st1" d="M62.7,55c0,0,1.6,1.2,1.3,3.6c-0.1,0.7-1.1,2.7-2.1,4.1c-1.2,1.8-1.9,3.6-2,5.1c-0.1,1.4-0.2,2.2,0.7,3.7
			c0,0,0.6,0.2,0.4-0.7c-0.2-0.8-0.1-2.4,0.3-3.8c0.5-1.4,1-2.4,2.1-4.1c1.1-1.6,1.8-2.9,1.9-4s-0.1-2.3-0.8-3.1
			c-0.7-0.8-1.6-1.1-1.6-1.1S62.1,54.5,62.7,55"/>
		<path class="st1" d="M67.1,61.4c-2.4-1.5-7,1.3-10.2,6.3c-3.5,5.4-3.6,10.5-1.6,11.6c2.7,1.5,7.2-1.6,10.4-6.6
			C68.8,67.7,69.4,62.9,67.1,61.4 M66.4,73.3c-3.1,6.1-7.9,9.9-10.8,8.4c-3-1.5-2.9-7.6,0.1-13.7s8.1-10,11-8.4
			C69.7,61.1,69.6,67.2,66.4,73.3"/>
		<path class="st1" d="M59,51.5c0,0,4.4-1.8,8.8-1.5c2.5,0.1,2.8,3.8-0.3,3.7c-1.8,0-2.2-0.7-2.2-0.7l0.1-0.5c0,0,2.6,0.9,2.9-0.2
			s-0.9-1.3-2.4-1.1c-1.6,0.2-3.7,0.7-4.1,1.2C61.4,52.7,59,51.5,59,51.5z"/>
	</g>
	<g>
		<path class="st2" d="M8,33.9c3.5,0,5.9,2.3,5.9,5.5c0,2.4-1.3,4.3-3.4,5.1l4.1,6.4h-4.1L6.8,45H4.2v5.9H0.6v-17H8z M4.2,42.3h3.3
			c1.8,0,2.8-1.1,2.8-2.6s-1-2.6-2.8-2.6H4.2V42.3z"/>
		<path class="st2" d="M19.6,33.9V51H16V33.9H19.6z"/>
		<path class="st2" d="M37.2,42.4c0,4.9-3.9,8.6-9.1,8.6h-5.7V33.9h5.8C33.4,33.9,37.2,37.6,37.2,42.4z M28.3,47.8
			c3.1,0,5.4-2.3,5.4-5.3s-2.2-5.3-5.4-5.3H26v10.6H28.3z"/>
		<path class="st2" d="M38.7,33.9h12v3.2h-8.5v3.5h7.3v3h-7.3v4.2h8.7V51H38.7V33.9z"/>
	</g>
</g>
</svg>
