<?xml version="1.0" encoding="utf-8"?>
<!-- Generator: Adobe Illustrator 25.2.0, SVG Export Plug-In . SVG Version: 6.00 Build 0)  -->
<svg version="1.1" id="Layer_1" xmlns="http://www.w3.org/2000/svg" xmlns:xlink="http://www.w3.org/1999/xlink" x="0px" y="0px"
	 viewBox="0 0 311.9 100" style="enable-background:new 0 0 311.9 100;" xml:space="preserve">
<style type="text/css">
	.st0{fill:#8F827A;}
	.st1{fill:#0064A8;}
	.st2{fill:#8C827A;}
	.st3{display:none;}
	.st4{display:inline;}
	.st5{display:inline;fill:#0064A8;}
</style>
<g>
	<g>
		<path class="st0" d="M133.2,31.8c-0.8-0.9-1.8-1.6-3.2-2.2s-2.8-0.8-4.5-0.8c-2.5,0-4.3,0.5-5.4,1.4c-1.1,0.9-1.7,2.2-1.7,3.8
			c0,0.8,0.2,1.5,0.5,2.1c0.3,0.5,0.8,1,1.4,1.4c0.6,0.4,1.5,0.7,2.4,1s2.1,0.6,3.5,0.9c1.5,0.3,2.8,0.7,4,1c1.2,0.4,2.2,0.9,3,1.5
			c0.8,0.6,1.5,1.3,1.9,2.2c0.4,0.9,0.7,1.9,0.7,3.2c0,1.3-0.2,2.4-0.7,3.3c-0.5,0.9-1.2,1.7-2.1,2.4c-0.9,0.6-2,1.1-3.2,1.4
			c-1.2,0.3-2.6,0.5-4,0.5c-4.4,0-8.1-1.4-11.2-4.1l1.3-2.2c1,1.1,2.4,2,4.1,2.7c1.7,0.7,3.7,1.1,5.8,1.1c2.2,0,4-0.4,5.2-1.2
			c1.3-0.8,1.9-2,1.9-3.6c0-0.9-0.2-1.6-0.5-2.2c-0.4-0.6-0.9-1.1-1.6-1.5c-0.7-0.4-1.6-0.8-2.7-1.1c-1.1-0.3-2.3-0.6-3.7-0.9
			c-1.5-0.3-2.8-0.7-3.9-1.1c-1.1-0.4-2-0.8-2.8-1.4c-0.7-0.6-1.3-1.2-1.7-2c-0.4-0.8-0.6-1.7-0.6-2.9c0-1.3,0.2-2.4,0.7-3.4
			c0.5-1,1.2-1.8,2-2.5c0.9-0.7,1.9-1.2,3.1-1.5c1.2-0.4,2.6-0.5,4-0.5c1.8,0,3.5,0.3,4.9,0.8c1.5,0.6,2.8,1.4,4,2.4L133.2,31.8z"/>
		<path class="st0" d="M148.8,53.5c-0.2,0.1-0.4,0.2-0.7,0.3c-0.3,0.1-0.6,0.3-1,0.4c-0.4,0.1-0.8,0.2-1.3,0.4
			c-0.5,0.1-1,0.2-1.6,0.2c-0.6,0-1.1-0.1-1.7-0.2c-0.5-0.2-1-0.4-1.4-0.7c-0.4-0.3-0.7-0.7-0.9-1.2c-0.2-0.5-0.4-1.1-0.4-1.7V36.1
			H137V34h2.8V27h2.7V34h4.7v2.1h-4.7V50c0.1,0.8,0.3,1.3,0.8,1.7c0.5,0.4,1,0.5,1.7,0.5c0.8,0,1.4-0.1,2-0.4
			c0.6-0.2,0.9-0.4,1.1-0.5L148.8,53.5z"/>
		<path class="st0" d="M159.2,54.8c-1.5,0-2.9-0.3-4.1-0.8c-1.2-0.6-2.3-1.3-3.2-2.3c-0.9-1-1.6-2.1-2.1-3.4
			c-0.5-1.3-0.7-2.6-0.7-4.1c0-1.4,0.3-2.8,0.8-4.1c0.5-1.3,1.2-2.4,2.1-3.4c0.9-1,2-1.7,3.2-2.3c1.2-0.6,2.6-0.9,4.1-0.9
			s2.8,0.3,4.1,0.9c1.2,0.6,2.3,1.4,3.2,2.3c0.9,1,1.6,2.1,2.1,3.4c0.5,1.3,0.8,2.6,0.8,4.1c0,1.4-0.3,2.8-0.8,4.1
			c-0.5,1.3-1.2,2.4-2.1,3.4c-0.9,1-2,1.7-3.2,2.3C162,54.6,160.6,54.8,159.2,54.8z M151.7,44.3c0,1.2,0.2,2.2,0.6,3.2
			c0.4,1,0.9,1.8,1.6,2.6c0.7,0.7,1.5,1.3,2.4,1.7c0.9,0.4,1.9,0.6,2.9,0.6s2-0.2,2.9-0.6c0.9-0.4,1.7-1,2.4-1.8
			c0.7-0.7,1.2-1.6,1.6-2.6c0.4-1,0.6-2.1,0.6-3.2c0-1.1-0.2-2.2-0.6-3.2c-0.4-1-0.9-1.9-1.6-2.6c-0.7-0.7-1.5-1.3-2.4-1.8
			c-0.9-0.4-1.8-0.6-2.9-0.6c-1,0-2,0.2-2.9,0.6c-0.9,0.4-1.7,1-2.4,1.8c-0.7,0.8-1.2,1.6-1.6,2.7S151.7,43.1,151.7,44.3z"/>
		<path class="st0" d="M190.1,54.4h-2.7V43c0-2.4-0.4-4.2-1.1-5.3c-0.7-1.1-1.8-1.7-3.3-1.7c-0.8,0-1.6,0.1-2.4,0.4
			c-0.8,0.3-1.5,0.7-2.2,1.2c-0.7,0.5-1.3,1.1-1.8,1.9c-0.5,0.7-0.9,1.5-1.2,2.3v12.5h-2.7V34h2.4v4.6c0.4-0.7,0.9-1.4,1.6-2
			c0.6-0.6,1.3-1.1,2.1-1.6c0.8-0.4,1.6-0.8,2.4-1c0.9-0.2,1.7-0.4,2.7-0.4c1.2,0,2.1,0.2,2.9,0.6c0.8,0.4,1.4,1,1.9,1.8
			c0.5,0.8,0.8,1.7,1,2.8c0.2,1.1,0.3,2.3,0.3,3.7V54.4z"/>
		<path class="st0" d="M203.8,54.8c-1.5,0-2.9-0.3-4.1-0.8c-1.3-0.6-2.3-1.3-3.3-2.3c-0.9-1-1.6-2.1-2.1-3.4
			c-0.5-1.3-0.8-2.7-0.8-4.1c0-1.4,0.3-2.8,0.8-4.1c0.5-1.3,1.2-2.4,2.1-3.3c0.9-1,2-1.7,3.2-2.3c1.2-0.6,2.6-0.8,4.1-0.8
			c1.5,0,2.9,0.3,4.1,0.8c1.2,0.6,2.3,1.3,3.2,2.3c0.9,1,1.6,2.1,2.1,3.3c0.5,1.3,0.7,2.6,0.7,4c0,0.2,0,0.4,0,0.6
			c0,0.2,0,0.4-0.1,0.4h-17.5c0.1,1.1,0.3,2.1,0.8,3s1,1.7,1.7,2.4c0.7,0.7,1.4,1.2,2.3,1.6c0.9,0.4,1.8,0.6,2.8,0.6
			c0.7,0,1.4-0.1,2-0.3c0.7-0.2,1.3-0.4,1.8-0.7c0.6-0.3,1-0.7,1.5-1.2c0.4-0.5,0.8-1,1-1.5l2.3,0.6c-0.3,0.8-0.8,1.4-1.3,2.1
			c-0.6,0.6-1.2,1.2-2,1.6c-0.8,0.5-1.6,0.8-2.5,1.1C205.7,54.7,204.8,54.8,203.8,54.8z M211.4,43.1c-0.1-1.1-0.3-2.1-0.8-3
			c-0.4-0.9-1-1.7-1.7-2.3c-0.7-0.7-1.4-1.2-2.3-1.5c-0.9-0.4-1.8-0.6-2.8-0.6c-1,0-1.9,0.2-2.8,0.6c-0.9,0.4-1.7,0.9-2.3,1.5
			c-0.7,0.7-1.2,1.4-1.6,2.4c-0.4,0.9-0.6,1.9-0.7,3H211.4z"/>
		<path class="st0" d="M226.1,54.8c-1.6,0-3.2-0.3-4.7-0.8c-1.5-0.5-2.8-1.3-3.9-2.3l1.2-1.8c1.2,0.9,2.3,1.7,3.5,2.1
			c1.2,0.5,2.5,0.7,3.8,0.7c1.7,0,3-0.3,4-1c1-0.7,1.5-1.6,1.5-2.9c0-0.6-0.1-1.1-0.4-1.4c-0.3-0.4-0.6-0.7-1.2-1
			c-0.5-0.3-1.2-0.5-1.9-0.8c-0.8-0.2-1.7-0.5-2.7-0.7c-1.2-0.3-2.2-0.6-3.1-0.9c-0.9-0.3-1.6-0.6-2.1-1c-0.6-0.4-1-0.8-1.3-1.4
			c-0.3-0.5-0.4-1.2-0.4-2c0-1,0.2-1.9,0.6-2.7c0.4-0.8,1-1.4,1.7-1.9c0.7-0.5,1.5-0.9,2.4-1.2c0.9-0.3,1.9-0.4,3-0.4
			c1.6,0,3,0.3,4.3,0.8c1.3,0.5,2.3,1.2,3.1,2l-1.3,1.6c-0.8-0.8-1.7-1.4-2.8-1.8c-1.1-0.4-2.2-0.6-3.4-0.6c-0.7,0-1.4,0.1-2,0.2
			c-0.6,0.1-1.1,0.4-1.6,0.7c-0.5,0.3-0.8,0.7-1.1,1.2c-0.3,0.5-0.4,1.1-0.4,1.7c0,0.6,0.1,1,0.3,1.3c0.2,0.3,0.5,0.6,0.9,0.9
			c0.4,0.2,1,0.5,1.6,0.7c0.6,0.2,1.4,0.4,2.3,0.6c1.3,0.3,2.5,0.6,3.5,0.9c1,0.3,1.8,0.7,2.5,1.1c0.7,0.4,1.2,0.9,1.5,1.5
			c0.3,0.6,0.5,1.3,0.5,2.2c0,1.9-0.7,3.4-2.2,4.5C230.5,54.3,228.5,54.8,226.1,54.8z"/>
		<path class="st0" d="M137.8,82.2c0,1-0.2,2-0.6,2.9c-0.4,0.9-1,1.6-1.7,2.3c-0.7,0.6-1.5,1.1-2.5,1.5c-0.9,0.4-2,0.5-3,0.5h-13.1
			V61.5h13.4c1,0,1.8,0.2,2.6,0.6c0.8,0.4,1.5,1,2,1.6c0.6,0.7,1,1.4,1.3,2.3c0.3,0.9,0.5,1.7,0.5,2.6c0,1.4-0.4,2.7-1.1,3.9
			c-0.7,1.2-1.7,2-2.9,2.6c1.6,0.5,2.9,1.4,3.8,2.6C137.3,79,137.8,80.5,137.8,82.2z M119.5,63.9v10.3h9.6c0.7,0,1.3-0.1,1.9-0.4
			c0.6-0.3,1.1-0.7,1.5-1.1c0.4-0.5,0.8-1,1-1.6c0.2-0.6,0.4-1.3,0.4-1.9c0-0.7-0.1-1.4-0.3-2c-0.2-0.6-0.5-1.2-0.9-1.6
			c-0.4-0.5-0.9-0.8-1.5-1.1c-0.6-0.3-1.2-0.4-1.8-0.4H119.5z M135,81.7c0-0.7-0.1-1.3-0.4-2c-0.2-0.6-0.6-1.2-1-1.7
			c-0.4-0.5-0.9-0.9-1.5-1.2c-0.6-0.3-1.2-0.5-1.9-0.5h-10.7V87h10.4c0.7,0,1.4-0.1,2-0.4c0.6-0.3,1.2-0.7,1.6-1.2
			c0.4-0.5,0.8-1,1.1-1.7S135,82.4,135,81.7z"/>
		<path class="st0" d="M148.1,89.8c-2.2,0-3.8-0.7-4.9-2.2c-1.1-1.5-1.7-3.7-1.7-6.6v-12h2.7v11.6c0,4.6,1.6,7,4.8,7
			c0.8,0,1.6-0.1,2.3-0.4c0.8-0.3,1.5-0.6,2.1-1.1c0.6-0.5,1.2-1.1,1.7-1.8c0.5-0.7,0.9-1.5,1.2-2.3V68.9h2.7v17
			c0,0.7,0.3,1.1,1,1.1v2.4c-0.5,0.1-0.9,0.1-1.1,0.1c-0.6,0-1.1-0.2-1.6-0.6c-0.4-0.4-0.6-0.8-0.6-1.4v-2.8
			c-0.9,1.6-2.1,2.8-3.7,3.7C151.6,89.4,149.9,89.8,148.1,89.8z"/>
		<path class="st0" d="M172.6,89.8c-1.4,0-2.7-0.3-3.9-0.9c-1.2-0.6-2.2-1.4-3.1-2.3s-1.6-2.1-2-3.4c-0.5-1.3-0.7-2.6-0.7-4
			c0-1.4,0.2-2.8,0.7-4.1c0.5-1.3,1.1-2.4,1.9-3.4c0.8-1,1.8-1.7,2.9-2.3c1.1-0.6,2.4-0.8,3.8-0.8c1.7,0,3.3,0.5,4.6,1.4
			c1.3,0.9,2.4,2,3.2,3.3V60.7h2.7v25.3c0,0.7,0.3,1.1,0.9,1.1v2.4c-0.4,0.1-0.8,0.1-1.1,0.1c-0.7,0-1.2-0.2-1.6-0.6
			c-0.4-0.4-0.6-0.8-0.6-1.4v-2.2c-0.8,1.3-1.9,2.4-3.3,3.2C175.5,89.4,174.1,89.8,172.6,89.8z M173.1,87.4c0.7,0,1.4-0.1,2.1-0.4
			c0.7-0.3,1.4-0.6,2.1-1.1c0.6-0.5,1.2-1,1.7-1.6c0.5-0.6,0.8-1.3,0.9-2V76c-0.3-0.7-0.6-1.4-1.2-2c-0.5-0.6-1.1-1.2-1.7-1.6
			c-0.6-0.5-1.3-0.8-2-1.1c-0.7-0.3-1.4-0.4-2.1-0.4c-1.1,0-2.1,0.2-3,0.7c-0.9,0.5-1.7,1.1-2.3,1.9c-0.6,0.8-1.1,1.7-1.5,2.7
			c-0.4,1-0.5,2-0.5,3.1c0,1.1,0.2,2.2,0.6,3.1s0.9,1.9,1.6,2.6c0.7,0.7,1.5,1.3,2.4,1.8C171.1,87.2,172.1,87.4,173.1,87.4z"/>
		<path class="st0" d="M196.1,89.8c-1.4,0-2.7-0.3-3.9-0.9c-1.2-0.6-2.2-1.4-3.1-2.3c-0.9-1-1.6-2.1-2-3.4s-0.7-2.6-0.7-4
			c0-1.4,0.2-2.8,0.7-4.1c0.5-1.3,1.1-2.4,1.9-3.4c0.8-1,1.8-1.7,2.9-2.3c1.1-0.6,2.4-0.8,3.8-0.8c1.7,0,3.3,0.5,4.6,1.4
			c1.3,0.9,2.4,2,3.2,3.3V60.7h2.7v25.3c0,0.7,0.3,1.1,0.9,1.1v2.4c-0.4,0.1-0.8,0.1-1.1,0.1c-0.7,0-1.2-0.2-1.6-0.6
			c-0.4-0.4-0.6-0.8-0.6-1.4v-2.2c-0.8,1.3-1.9,2.4-3.3,3.2C199.1,89.4,197.6,89.8,196.1,89.8z M196.7,87.4c0.7,0,1.4-0.1,2.1-0.4
			c0.7-0.3,1.4-0.6,2.1-1.1c0.6-0.5,1.2-1,1.7-1.6c0.5-0.6,0.8-1.3,0.9-2V76c-0.3-0.7-0.6-1.4-1.2-2c-0.5-0.6-1.1-1.2-1.7-1.6
			c-0.6-0.5-1.3-0.8-2-1.1c-0.7-0.3-1.4-0.4-2.1-0.4c-1.1,0-2.1,0.2-3,0.7c-0.9,0.5-1.7,1.1-2.3,1.9c-0.6,0.8-1.1,1.7-1.5,2.7
			c-0.4,1-0.5,2-0.5,3.1c0,1.1,0.2,2.2,0.6,3.1c0.4,1,0.9,1.9,1.6,2.6c0.7,0.7,1.5,1.3,2.4,1.8C194.6,87.2,195.6,87.4,196.7,87.4z"
			/>
		<path class="st0" d="M211.3,64.6v-3.9h2.7v3.9H211.3z M211.3,89.4V68.9h2.7v20.5H211.3z"/>
		<path class="st0" d="M227.9,89.8c-1.5,0-2.9-0.3-4.1-0.8c-1.3-0.6-2.3-1.3-3.3-2.3c-0.9-1-1.6-2.1-2.1-3.4
			c-0.5-1.3-0.8-2.7-0.8-4.1c0-1.4,0.3-2.8,0.8-4.1c0.5-1.3,1.2-2.4,2.1-3.3c0.9-1,2-1.7,3.2-2.3c1.2-0.6,2.6-0.8,4.1-0.8
			c1.5,0,2.9,0.3,4.1,0.8c1.2,0.6,2.3,1.3,3.2,2.3c0.9,1,1.6,2.1,2.1,3.3c0.5,1.3,0.7,2.6,0.7,4c0,0.2,0,0.4,0,0.6
			c0,0.2,0,0.4-0.1,0.4h-17.5c0.1,1.1,0.3,2.1,0.8,3s1,1.7,1.7,2.4c0.7,0.7,1.4,1.2,2.3,1.6c0.9,0.4,1.8,0.6,2.8,0.6
			c0.7,0,1.4-0.1,2-0.3c0.7-0.2,1.3-0.4,1.8-0.7c0.6-0.3,1-0.7,1.5-1.2c0.4-0.5,0.8-1,1-1.5l2.3,0.6c-0.3,0.8-0.8,1.4-1.3,2.1
			c-0.6,0.6-1.2,1.2-2,1.6c-0.8,0.5-1.6,0.8-2.5,1.1S228.8,89.8,227.9,89.8z M235.4,78.1c-0.1-1.1-0.3-2.1-0.8-3
			c-0.4-0.9-1-1.7-1.7-2.3c-0.7-0.7-1.4-1.2-2.3-1.5c-0.9-0.4-1.8-0.6-2.8-0.6c-1,0-1.9,0.2-2.8,0.6c-0.9,0.4-1.7,0.9-2.3,1.5
			c-0.7,0.7-1.2,1.4-1.6,2.4c-0.4,0.9-0.6,1.9-0.7,3H235.4z"/>
		<path class="st0" d="M247.9,89.8c-1.6,0-3.2-0.3-4.7-0.8s-2.8-1.3-3.9-2.3l1.2-1.8c1.2,0.9,2.3,1.7,3.5,2.1
			c1.2,0.5,2.5,0.7,3.8,0.7c1.7,0,3-0.3,4-1c1-0.7,1.5-1.6,1.5-2.9c0-0.6-0.1-1.1-0.4-1.4c-0.3-0.4-0.6-0.7-1.2-1
			c-0.5-0.3-1.2-0.5-1.9-0.8c-0.8-0.2-1.7-0.5-2.7-0.7c-1.2-0.3-2.2-0.6-3.1-0.9c-0.9-0.3-1.6-0.6-2.1-1c-0.6-0.4-1-0.8-1.3-1.4
			c-0.3-0.5-0.4-1.2-0.4-2c0-1,0.2-1.9,0.6-2.7c0.4-0.8,1-1.4,1.7-1.9c0.7-0.5,1.5-0.9,2.4-1.2c0.9-0.3,1.9-0.4,3-0.4
			c1.6,0,3,0.3,4.3,0.8c1.3,0.5,2.3,1.2,3.1,2l-1.3,1.6c-0.8-0.8-1.7-1.4-2.8-1.8c-1.1-0.4-2.2-0.6-3.4-0.6c-0.7,0-1.4,0.1-2,0.2
			c-0.6,0.1-1.1,0.4-1.6,0.7c-0.5,0.3-0.8,0.7-1.1,1.2c-0.3,0.5-0.4,1.1-0.4,1.7c0,0.6,0.1,1,0.3,1.3c0.2,0.3,0.5,0.6,0.9,0.9
			c0.4,0.2,1,0.5,1.6,0.7c0.6,0.2,1.4,0.4,2.3,0.6c1.3,0.3,2.5,0.6,3.5,0.9c1,0.3,1.8,0.7,2.5,1.1c0.7,0.4,1.2,0.9,1.5,1.5
			c0.3,0.6,0.5,1.3,0.5,2.2c0,1.9-0.7,3.4-2.2,4.5C252.3,89.3,250.3,89.8,247.9,89.8z"/>
	</g>
	<g>
		<g>
			<path class="st1" d="M94.9,27.9c-0.5-1-2-0.6-1.9,0.6c1.3,9.7,1.5,27.8-10,44.7C71.8,89.9,54.8,95.7,45,97.8
				c-1.1,0.2-1,1.9,0.1,2c1.6,0.2,3.2,0.2,4.9,0.2c27.6,0,50-22.4,50-50C100,42.1,98.2,34.6,94.9,27.9z"/>
			<path class="st1" d="M79.8,10.2C73.4,5.8,63.3,0,50,0C31.6,0,15.5,10,6.8,24.8C3.8,30,2.9,37.2,7.1,42.4c1.9,2.3,5.8,3.3,8.8,2.1
				c1.9-0.8,5.7-2.3,8.1-2.7c8.9-1.4,13.2,3.2,15.2,6.8c0.5,0.9-0.5,1.9-1.4,1.3c-2.5-1.7-6.4-3.2-11.1-1.3
				c-10.7,4.2-9.9,16.1-3.9,24.3c5.1,7,9.1,10.6,11.8,12.4c0.9,0.6,0.3,2-0.7,1.8c-5.5-0.9-15.3-5-24.8-20.9
				c-4.5-7.5-6.4-15.1-6.9-21.3c-0.1-1.2-1.9-1.2-2,0C0.1,46.6,0,48.3,0,50c0,14.4,6.1,27.4,15.8,36.5c10.6,10,25.3,11.3,39.3-1.9
				c10.8-10.2,20.7-32.8,1-38.9c-6-1.9-10.8,1.7-13.3,4.3c-0.7,0.7-1.9,0.1-1.7-0.9c1.1-5.1,5.3-13.8,22.3-11.3
				c3.6,0.5,6.8,2.4,9.6,3.6c8.7,3.7,14.1-2.9,15.8-8.4C91.4,24.7,87.2,15.2,79.8,10.2z M73.4,15.5c4.6-0.9,9.3,3.3,10.4,9.3
				c1.1,6-1.7,11.6-6.3,12.5c-4.6,0.9-9.3-3.3-10.4-9.3C65.9,22,68.7,16.4,73.4,15.5z M20,35.4c-0.8,4.1-4,7-7.1,6.4
				c-3.2-0.6-5.1-4.4-4.3-8.5c0.8-4.1,4-7,7.1-6.4C18.9,27.4,20.8,31.2,20,35.4z"/>
		</g>
	</g>
	<g>
		<path class="st1" d="M119.9,17.7c-2.7,0-4.3-2-4.3-4.6c0-2.7,1.7-4.7,4.4-4.7c2.8,0,4.3,2.1,4.3,4.6
			C124.3,16,122.5,17.7,119.9,17.7L119.9,17.7z M120,16.1c1.4,0,2.2-1.3,2.2-3.1c0-1.6-0.8-3-2.2-3c-1.4,0-2.2,1.4-2.2,3.1
			C117.8,14.8,118.6,16.1,120,16.1L120,16.1z"/>
		<path class="st1" d="M128.5,8.5v9.1h-2V8.5H128.5z"/>
		<path class="st1" d="M131,15.5c0.5,0.3,1.4,0.6,2.3,0.6c0.9,0,1.4-0.4,1.4-1c0-0.6-0.4-0.9-1.5-1.3c-1.5-0.5-2.5-1.4-2.5-2.7
			c0-1.5,1.3-2.7,3.4-2.7c1,0,1.8,0.2,2.3,0.5l-0.5,1.6c-0.3-0.2-1-0.4-1.9-0.4c-0.9,0-1.3,0.4-1.3,0.9c0,0.6,0.5,0.8,1.7,1.3
			c1.6,0.6,2.3,1.4,2.3,2.7c0,1.5-1.2,2.8-3.6,2.8c-1,0-2.1-0.3-2.6-0.6L131,15.5z"/>
		<path class="st1" d="M141,8.5V12h3.4V8.5h2v9.1h-2v-3.8H141v3.8h-2V8.5H141z"/>
		<path class="st1" d="M154.4,13.8H151v2.2h3.7v1.7H149V8.5h5.6v1.7H151v1.9h3.3V13.8z"/>
		<path class="st1" d="M159,8.5v9.1h-2V8.5H159z"/>
		<path class="st1" d="M171.6,17.3c-0.4,0.2-1.2,0.4-2.3,0.4c-3.1,0-4.7-2-4.7-4.5c0-3.1,2.2-4.8,4.9-4.8c1.1,0,1.9,0.2,2.2,0.4
			l-0.4,1.6c-0.4-0.2-1-0.3-1.7-0.3c-1.6,0-2.9,1-2.9,3c0,1.8,1.1,2.9,2.9,2.9c0.6,0,1.3-0.1,1.7-0.3L171.6,17.3z"/>
		<path class="st1" d="M175.7,8.5V12h3.4V8.5h2v9.1h-2v-3.8h-3.4v3.8h-2V8.5H175.7z"/>
		<path class="st1" d="M185.7,8.5v9.1h-2V8.5H185.7z"/>
		<path class="st1" d="M188.3,8.5h2v7.3h3.6v1.7h-5.6V8.5z"/>
		<path class="st1" d="M195.9,8.7c0.8-0.1,1.7-0.2,2.8-0.2c1.7,0,2.9,0.3,3.7,1c0.9,0.7,1.5,1.8,1.5,3.4c0,1.7-0.6,2.9-1.5,3.7
			c-1,0.8-2.4,1.2-4.2,1.2c-1.1,0-1.8-0.1-2.3-0.1V8.7z M197.9,16.1c0.2,0,0.5,0,0.7,0c1.9,0,3.1-1,3.1-3.2c0-1.9-1.1-2.9-2.9-2.9
			c-0.4,0-0.8,0-0.9,0.1V16.1z"/>
		<path class="st1" d="M206,8.7c0.7-0.1,1.6-0.2,2.7-0.2c1.3,0,2.3,0.2,2.9,0.7c0.6,0.4,0.8,1.1,0.8,1.9c0,1.1-0.8,1.9-1.6,2.2v0
			c0.6,0.3,1,0.8,1.2,1.7c0.3,1,0.6,2.2,0.7,2.6h-2.1c-0.1-0.3-0.4-1-0.6-2.1c-0.3-1.1-0.6-1.4-1.5-1.5H208v3.6h-2V8.7z M208,12.6
			h0.8c1,0,1.6-0.5,1.6-1.3c0-0.8-0.6-1.3-1.5-1.3c-0.5,0-0.8,0-0.9,0.1V12.6z"/>
		<path class="st1" d="M220.1,13.8h-3.3v2.2h3.7v1.7h-5.8V8.5h5.6v1.7h-3.5v1.9h3.3V13.8z"/>
		<path class="st1" d="M222.6,17.6V8.5h2.4l1.9,3.3c0.5,1,1.1,2.1,1.5,3.1h0c-0.1-1.2-0.2-2.4-0.2-3.8V8.5h1.9v9.1h-2.2l-1.9-3.5
			c-0.5-1-1.1-2.1-1.6-3.2h-0.1c0.1,1.2,0.1,2.5,0.1,4v2.7H222.6z"/>
		<path class="st1" d="M234.9,8.3c-0.4,1.3-1,2.6-1.6,3.6l-1.2,0.1c0.4-1.2,0.8-2.4,0.9-3.6L234.9,8.3z"/>
		<path class="st1" d="M236.7,15.5c0.5,0.3,1.4,0.6,2.3,0.6c0.9,0,1.4-0.4,1.4-1c0-0.6-0.4-0.9-1.5-1.3c-1.5-0.5-2.5-1.4-2.5-2.7
			c0-1.5,1.3-2.7,3.4-2.7c1,0,1.8,0.2,2.3,0.5l-0.5,1.6c-0.3-0.2-1-0.4-1.9-0.4c-0.9,0-1.3,0.4-1.3,0.9c0,0.6,0.5,0.8,1.7,1.3
			c1.6,0.6,2.3,1.4,2.3,2.7c0,1.5-1.2,2.8-3.6,2.8c-1,0-2.1-0.3-2.6-0.6L236.7,15.5z"/>
		<path class="st1" d="M250.1,8.5V12h3.4V8.5h2v9.1h-2v-3.8h-3.4v3.8h-2V8.5H250.1z"/>
		<path class="st1" d="M261.9,17.7c-2.7,0-4.3-2-4.3-4.6c0-2.7,1.7-4.7,4.4-4.7c2.8,0,4.3,2.1,4.3,4.6
			C266.4,16,264.6,17.7,261.9,17.7L261.9,17.7z M262,16.1c1.4,0,2.2-1.3,2.2-3.1c0-1.6-0.8-3-2.2-3c-1.4,0-2.2,1.4-2.2,3.1
			C259.8,14.8,260.6,16.1,262,16.1L262,16.1z"/>
		<path class="st1" d="M268.5,15.5c0.5,0.3,1.4,0.6,2.3,0.6c0.9,0,1.4-0.4,1.4-1c0-0.6-0.4-0.9-1.5-1.3c-1.5-0.5-2.5-1.4-2.5-2.7
			c0-1.5,1.3-2.7,3.4-2.7c1,0,1.8,0.2,2.3,0.5l-0.5,1.6c-0.4-0.2-1-0.4-1.9-0.4c-0.9,0-1.3,0.4-1.3,0.9c0,0.6,0.5,0.8,1.7,1.3
			c1.6,0.6,2.3,1.4,2.3,2.7c0,1.5-1.2,2.8-3.6,2.8c-1,0-2.1-0.3-2.6-0.6L268.5,15.5z"/>
		<path class="st1" d="M276.5,8.7c0.6-0.1,1.5-0.2,2.8-0.2c1.3,0,2.2,0.2,2.8,0.7c0.6,0.4,1,1.2,1,2.1c0,0.9-0.3,1.7-0.8,2.2
			c-0.7,0.6-1.7,1-2.9,1c-0.3,0-0.5,0-0.7-0.1v3.3h-2V8.7z M278.5,12.8c0.2,0,0.4,0.1,0.7,0.1c1.1,0,1.8-0.6,1.8-1.5
			c0-0.8-0.6-1.3-1.6-1.3c-0.4,0-0.7,0-0.8,0.1V12.8z"/>
		<path class="st1" d="M287.1,8.5v9.1h-2V8.5H287.1z"/>
		<path class="st1" d="M291.3,10.3h-2.4V8.5h7v1.7h-2.5v7.3h-2V10.3z"/>
		<path class="st1" d="M298.8,15.3l-0.6,2.3h-2.1l2.8-9.1h2.7l2.8,9.1h-2.2l-0.7-2.3H298.8z M301.1,13.7l-0.6-1.9
			c-0.1-0.5-0.3-1.2-0.4-1.7h0c-0.1,0.5-0.3,1.2-0.4,1.7l-0.6,1.9H301.1z"/>
		<path class="st1" d="M306.3,8.5h2v7.3h3.6v1.7h-5.6V8.5z"/>
	</g>
	<g>
		<path class="st2" d="M219,27.2c-0.6,2.3-1.4,4.6-2.3,6.4l-1.7,0.2c0.6-2,1-4.3,1.3-6.4L219,27.2z"/>
	</g>
</g>
<g class="st3">
	<g class="st4">
		<path class="st1" d="M-8.8-226.2c-0.7-1.4-2.8-0.8-2.6,0.8c1.7,13.3,2.1,38.2-13.7,61.4c-15.5,22.8-38.7,30.9-52.2,33.7
			c-1.5,0.3-1.4,2.5,0.2,2.7c2.2,0.2,4.5,0.3,6.7,0.3c37.9,0,68.6-30.7,68.6-68.6C-1.7-206.8-4.3-217.1-8.8-226.2z"/>
		<path class="st1" d="M-29.4-250.6c-8.8-6-22.6-14-41-14c-25.3,0-47.3,13.7-59.2,34c-4.2,7.2-5.4,17.1,0.4,24.2
			c2.6,3.1,7.9,4.5,12.1,2.8c2.6-1.1,7.8-3.1,11.1-3.7c12.2-1.9,18.1,4.4,20.9,9.4c0.7,1.2-0.8,2.6-1.9,1.8
			c-3.4-2.3-8.7-4.4-15.2-1.8c-14.7,5.7-13.6,22.1-5.3,33.3c7,9.6,12.5,14.5,16.2,17c1.2,0.8,0.4,2.7-1,2.5
			c-7.6-1.3-21-6.8-34.1-28.6c-6.2-10.3-8.7-20.7-9.5-29.2c-0.1-1.7-2.5-1.7-2.7,0c-0.2,2.3-0.4,4.6-0.4,6.9
			c0,19.8,8.3,37.6,21.7,50.1c14.6,13.7,34.7,15.5,54-2.6c14.9-14,28.5-45,1.3-53.4c-8.3-2.6-14.8,2.3-18.3,6c-1,1-2.6,0.1-2.3-1.2
			c1.5-7,7.3-19,30.7-15.5c4.9,0.7,9.3,3.3,13.1,4.9c11.9,5.1,19.4-4,21.7-11.5C-13.6-230.7-19.3-243.7-29.4-250.6z M-38.3-243.3
			c6.3-1.2,12.8,4.5,14.3,12.8c1.6,8.3-2.3,16-8.6,17.2c-6.3,1.2-12.8-4.5-14.3-12.8C-48.5-234.4-44.7-242.1-38.3-243.3z
			 M-111.5-216.1c-1.1,5.7-5.5,9.6-9.8,8.7c-4.3-0.8-7-6.1-5.9-11.7c1.1-5.7,5.5-9.6,9.8-8.7C-113.1-227-110.4-221.7-111.5-216.1z"
			/>
	</g>
</g>
<g class="st3">
	<path class="st5" d="M25.6-240.2c-3.7,0-5.9-2.8-5.9-6.3c0-3.7,2.4-6.5,6.1-6.5c3.8,0,5.9,2.9,5.9,6.3
		C31.7-242.7,29.2-240.2,25.6-240.2L25.6-240.2z M25.7-242.5c1.9,0,3-1.8,3-4.2c0-2.2-1.1-4.2-3-4.2c-1.9,0-3,1.9-3,4.2
		C22.7-244.3,23.8-242.5,25.7-242.5L25.7-242.5z"/>
	<path class="st5" d="M37.4-252.9v12.4h-2.8v-12.4H37.4z"/>
	<path class="st5" d="M40.9-243.3c0.7,0.4,1.9,0.8,3.1,0.8c1.3,0,2-0.5,2-1.3c0-0.8-0.6-1.2-2.1-1.7c-2.1-0.7-3.4-1.9-3.4-3.7
		c0-2.1,1.8-3.7,4.7-3.7c1.4,0,2.4,0.3,3.2,0.6l-0.6,2.3c-0.5-0.2-1.4-0.6-2.6-0.6c-1.2,0-1.8,0.6-1.8,1.2c0,0.8,0.7,1.1,2.3,1.8
		c2.2,0.8,3.2,2,3.2,3.7c0,2.1-1.6,3.9-5,3.9c-1.4,0-2.8-0.4-3.5-0.8L40.9-243.3z"/>
	<path class="st5" d="M54.6-252.9v4.8h4.6v-4.8h2.8v12.4h-2.8v-5.2h-4.6v5.2h-2.8v-12.4H54.6z"/>
	<path class="st5" d="M72.9-245.7h-4.6v3h5.1v2.3h-7.9v-12.4h7.7v2.3h-4.9v2.6h4.6V-245.7z"/>
	<path class="st5" d="M79.2-252.9v12.4h-2.8v-12.4H79.2z"/>
	<path class="st5" d="M96.5-240.8c-0.5,0.2-1.7,0.5-3.2,0.5c-4.3,0-6.5-2.7-6.5-6.2c0-4.2,3-6.6,6.8-6.6c1.5,0,2.6,0.3,3.1,0.5
		l-0.6,2.2c-0.6-0.2-1.3-0.5-2.4-0.5c-2.2,0-4,1.3-4,4.1c0,2.5,1.5,4,4,4c0.9,0,1.8-0.2,2.4-0.4L96.5-240.8z"/>
	<path class="st5" d="M102.2-252.9v4.8h4.6v-4.8h2.8v12.4h-2.8v-5.2h-4.6v5.2h-2.8v-12.4H102.2z"/>
	<path class="st5" d="M116-252.9v12.4h-2.8v-12.4H116z"/>
	<path class="st5" d="M119.5-252.9h2.8v10.1h4.9v2.4h-7.8V-252.9z"/>
	<path class="st5" d="M129.9-252.7c1-0.2,2.4-0.3,3.8-0.3c2.4,0,3.9,0.4,5.1,1.3c1.3,1,2.1,2.5,2.1,4.7c0,2.4-0.9,4-2,5
		c-1.3,1.1-3.3,1.6-5.8,1.6c-1.5,0-2.5-0.1-3.2-0.2V-252.7z M132.7-242.6c0.2,0.1,0.6,0.1,1,0.1c2.6,0,4.2-1.4,4.2-4.4
		c0-2.6-1.5-4-4-4c-0.6,0-1,0.1-1.3,0.1V-242.6z"/>
	<path class="st5" d="M143.7-252.7c0.9-0.2,2.2-0.3,3.7-0.3c1.8,0,3.1,0.3,4,1c0.8,0.6,1.2,1.5,1.2,2.6c0,1.6-1.1,2.7-2.2,3v0.1
		c0.9,0.4,1.3,1.2,1.7,2.3c0.4,1.4,0.8,3,1,3.5h-2.9c-0.2-0.4-0.5-1.4-0.8-2.9c-0.4-1.6-0.9-2-2-2h-0.8v4.9h-2.8V-252.7z
		 M146.5-247.4h1.1c1.4,0,2.2-0.7,2.2-1.8c0-1.1-0.8-1.7-2.1-1.7c-0.7,0-1.1,0-1.3,0.1V-247.4z"/>
	<path class="st5" d="M163.1-245.7h-4.6v3h5.1v2.3h-7.9v-12.4h7.7v2.3h-4.9v2.6h4.6V-245.7z"/>
	<path class="st5" d="M166.6-240.4v-12.4h3.3l2.6,4.6c0.7,1.3,1.5,2.9,2,4.3h0c-0.2-1.6-0.2-3.3-0.2-5.2v-3.6h2.6v12.4h-3l-2.7-4.8
		c-0.7-1.3-1.6-2.9-2.2-4.4H169c0.1,1.7,0.1,3.4,0.1,5.4v3.7H166.6z"/>
	<path class="st5" d="M183.5-253.2c-0.6,1.8-1.4,3.6-2.2,5l-1.7,0.2c0.6-1.6,1-3.4,1.3-5L183.5-253.2z"/>
	<path class="st5" d="M185.9-243.3c0.7,0.4,1.9,0.8,3.1,0.8c1.3,0,2-0.5,2-1.3c0-0.8-0.6-1.2-2.1-1.7c-2.1-0.7-3.4-1.9-3.4-3.7
		c0-2.1,1.8-3.7,4.7-3.7c1.4,0,2.4,0.3,3.2,0.6l-0.6,2.3c-0.5-0.2-1.4-0.6-2.6-0.6c-1.2,0-1.8,0.6-1.8,1.2c0,0.8,0.7,1.1,2.3,1.8
		c2.2,0.8,3.2,2,3.2,3.7c0,2.1-1.6,3.9-5,3.9c-1.4,0-2.8-0.4-3.5-0.8L185.9-243.3z"/>
	<path class="st5" d="M204.4-252.9v4.8h4.6v-4.8h2.8v12.4H209v-5.2h-4.6v5.2h-2.8v-12.4H204.4z"/>
	<path class="st5" d="M220.6-240.2c-3.7,0-5.9-2.8-5.9-6.3c0-3.7,2.4-6.5,6.1-6.5c3.8,0,5.9,2.9,5.9,6.3
		C226.7-242.7,224.2-240.2,220.6-240.2L220.6-240.2z M220.7-242.5c1.9,0,3-1.8,3-4.2c0-2.2-1.1-4.2-3-4.2s-3,1.9-3,4.2
		C217.7-244.3,218.8-242.5,220.7-242.5L220.7-242.5z"/>
	<path class="st5" d="M229.6-243.3c0.7,0.4,1.9,0.8,3.1,0.8c1.3,0,2-0.5,2-1.3c0-0.8-0.6-1.2-2.1-1.7c-2.1-0.7-3.4-1.9-3.4-3.7
		c0-2.1,1.8-3.7,4.7-3.7c1.4,0,2.4,0.3,3.2,0.6l-0.6,2.3c-0.5-0.2-1.4-0.6-2.6-0.6c-1.2,0-1.8,0.6-1.8,1.2c0,0.8,0.7,1.1,2.3,1.8
		c2.2,0.8,3.2,2,3.2,3.7c0,2.1-1.6,3.9-5,3.9c-1.4,0-2.8-0.4-3.5-0.8L229.6-243.3z"/>
	<path class="st5" d="M240.5-252.7c0.9-0.1,2.1-0.3,3.8-0.3c1.7,0,3,0.3,3.8,1c0.8,0.6,1.3,1.6,1.3,2.9c0,1.2-0.4,2.3-1.1,3
		c-1,0.9-2.4,1.3-4,1.3c-0.4,0-0.7,0-1-0.1v4.5h-2.8V-252.7z M243.3-247.1c0.2,0.1,0.5,0.1,0.9,0.1c1.5,0,2.4-0.8,2.4-2
		c0-1.1-0.8-1.8-2.2-1.8c-0.6,0-0.9,0-1.1,0.1V-247.1z"/>
	<path class="st5" d="M255.1-252.9v12.4h-2.8v-12.4H255.1z"/>
	<path class="st5" d="M261-250.5h-3.4v-2.4h9.6v2.4h-3.4v10.1H261V-250.5z"/>
	<path class="st5" d="M271.2-243.6l-0.9,3.2h-2.9l3.8-12.4h3.7l3.9,12.4h-3l-1-3.2H271.2z M274.4-245.7l-0.8-2.6
		c-0.2-0.7-0.4-1.7-0.6-2.4h-0.1c-0.2,0.7-0.4,1.7-0.6,2.4l-0.8,2.6H274.4z"/>
	<path class="st5" d="M281.5-252.9h2.8v10.1h4.9v2.4h-7.8V-252.9z"/>
</g>
<rect x="16.5" y="-229.3" style="fill:none;" width="404" height="113.6"/>
<text transform="matrix(1 0 0 1 16.4971 -189.8415)" class="st3"><tspan x="0" y="0" style="display:inline;fill:#8F827A; font-family:'Raleway'; font-size:54px; letter-spacing:-1;">M</tspan><tspan x="45.8" y="0" style="display:inline;fill:#8F827A; font-family:'Raleway'; font-size:54px; letter-spacing:-2;">a</tspan><tspan x="73.1" y="0" style="display:inline;fill:#8F827A; font-family:'Raleway'; font-size:54px; letter-spacing:-2;">t</tspan><tspan x="88.6" y="0" style="display:inline;fill:#8F827A; font-family:'Raleway'; font-size:54px;">e</tspan><tspan x="119.9" y="0" style="display:inline;fill:#8F827A; font-family:'Raleway'; font-size:54px; letter-spacing:-1;">r</tspan><tspan x="137.5" y="0" style="display:inline;fill:#8F827A; font-family:'Raleway'; font-size:54px;">nal-</tspan><tspan x="233.9" y="0" style="display:inline;fill:#8F827A; font-family:'Raleway'; font-size:54px; letter-spacing:-2;">F</tspan><tspan x="262.7" y="0" style="display:inline;fill:#8F827A; font-family:'Raleway'; font-size:54px;">etal</tspan><tspan x="0" y="48" style="display:inline;fill:#8F827A; font-family:'Raleway'; font-size:54px; letter-spacing:-1;">M</tspan><tspan x="45.7" y="48" style="display:inline;fill:#8F827A; font-family:'Raleway'; font-size:54px;">edici</tspan><tspan x="161.9" y="48" style="display:inline;fill:#8F827A; font-family:'Raleway'; font-size:54px; letter-spacing:-1;">n</tspan><tspan x="191.8" y="48" style="display:inline;fill:#8F827A; font-family:'Raleway'; font-size:54px;">e </tspan><tspan x="236.6" y="48" style="display:inline;fill:#8F827A; font-family:'Raleway'; font-size:54px; letter-spacing:-1;">C</tspan><tspan x="272.4" y="48" style="display:inline;fill:#8F827A; font-family:'Raleway'; font-size:54px;">enter</tspan></text>
<g>
	<g class="st3">
		<g class="st4">
			<g>
				<path class="st2" d="M60.5-160.1c0-2.2,0.4-4.3,1.2-6.4c0.8-2.1,1.9-4,3.3-5.7c1.4-1.7,3.2-3.1,5.4-4.1c2.2-1,4.6-1.6,7.2-1.6
					c3.1,0,5.8,0.7,8,2.1c2.3,1.4,4,3.3,5.1,5.7l-2.8,1.7c-0.5-1.2-1.2-2.2-2-3c-0.8-0.9-1.7-1.5-2.7-2c-0.9-0.5-1.9-0.8-2.9-1.1
					c-1-0.2-2-0.3-3-0.3c-1.7,0-3.2,0.3-4.6,0.9c-1.4,0.6-2.7,1.3-3.7,2.3c-1,1-1.9,2.1-2.7,3.4c-0.7,1.3-1.3,2.6-1.7,4
					c-0.4,1.4-0.5,2.9-0.5,4.3c0,2.6,0.6,5.1,1.7,7.4c1.2,2.3,2.8,4.2,4.9,5.6c2.1,1.4,4.3,2.1,6.8,2.1c1.4,0,2.8-0.2,4.2-0.7
					c1.4-0.5,2.7-1.2,3.9-2.2c1.3-1,2.2-2.3,3-3.8l2.9,1.5c-0.7,1.7-1.9,3.2-3.5,4.5c-1.6,1.3-3.3,2.2-5.1,2.9
					c-1.8,0.6-3.7,0.9-5.6,0.9c-1.9,0-3.7-0.3-5.5-1c-1.8-0.7-3.3-1.6-4.6-2.8c-1.3-1.2-2.5-2.6-3.5-4.1c-1-1.5-1.8-3.2-2.3-5
					C60.7-156.5,60.5-158.3,60.5-160.1z"/>
				<path class="st2" d="M94.1-142v-36.7h3.4v16.5c1-2,2.5-3.5,4.4-4.7c1.9-1.1,3.8-1.7,6-1.7c5.5,0,8.3,3.8,8.3,11.3v15.3h-3.4
					v-14.6c0-5.9-2-8.9-6-8.9c-2,0-3.8,0.7-5.6,2.2s-3,3.2-3.5,5.3v16H94.1z"/>
				<path class="st2" d="M120.7-173.7v-5h3.4v5H120.7z M120.7-142v-26.2h3.4v26.2H120.7z"/>
				<path class="st2" d="M129.1-146.8v-31.9h3.4v30.8c0,1,0.3,1.7,0.8,2.3c0.5,0.5,1.3,0.8,2.3,0.8c0.9,0,1.8-0.2,2.7-0.5l0.6,2.8
					c-0.6,0.2-1.4,0.5-2.3,0.6c-0.9,0.2-1.7,0.3-2.4,0.3c-1.6,0-2.8-0.4-3.7-1.3C129.5-144,129.1-145.2,129.1-146.8z"/>
				<path class="st2" d="M137.9-155c0-2.5,0.5-4.7,1.5-6.8c1-2.1,2.4-3.7,4.3-5c1.8-1.2,3.9-1.9,6.2-1.9c2.1,0,4,0.5,5.7,1.6
					c1.7,1.1,3.1,2.5,4.2,4.3v-16h3.4v32.3c0,0.9,0.4,1.4,1.2,1.4v3c-0.6,0.1-1,0.1-1.4,0.1c-0.8,0-1.5-0.2-2.1-0.7
					c-0.5-0.5-0.8-1.1-0.8-1.7v-2.8c-1,1.7-2.5,3-4.2,4c-1.8,1-3.6,1.5-5.5,1.5c-1.8,0-3.4-0.4-5-1.1c-1.6-0.7-2.9-1.7-4-3
					c-1.1-1.2-2-2.7-2.6-4.3C138.2-151.6,137.9-153.2,137.9-155z M141.4-155c0,1.9,0.4,3.6,1.3,5.2c0.9,1.6,2,2.9,3.5,3.9
					c1.5,1,3.2,1.4,4.9,1.4c1.8,0,3.6-0.7,5.5-2s2.9-2.8,3.2-4.5v-8.1c-0.7-1.8-1.9-3.3-3.7-4.6c-1.8-1.3-3.6-1.9-5.4-1.9
					c-1.8,0-3.4,0.5-4.9,1.5c-1.5,1-2.6,2.4-3.3,4C141.8-158.5,141.4-156.8,141.4-155z"/>
				<path class="st2" d="M168.4-142v-26.2h3.2v6.2c0.9-1.9,2.1-3.4,3.6-4.6c1.5-1.2,3.1-1.8,4.7-1.8c0.8,0,1.3,0,1.5,0v3.1
					c-2.3,0.1-4.3,0.7-6,1.9c-1.7,1.2-2.9,2.9-3.6,5v16.3H168.4z"/>
				<path class="st2" d="M181.8-155.1c0-2.4,0.6-4.7,1.7-6.7c1.1-2.1,2.7-3.7,4.7-4.9c2-1.2,4.3-1.8,6.7-1.8c2.5,0,4.7,0.6,6.7,1.9
					c2,1.2,3.5,2.9,4.6,4.9c1.1,2,1.6,4.3,1.7,6.6c0,0.7,0,1.1-0.1,1.4h-22.4c0.2,2.8,1.2,5.2,3.1,7c1.9,1.9,4.1,2.8,6.6,2.8
					c1.8,0,3.4-0.4,4.9-1.3c1.5-0.9,2.6-2,3.1-3.4l3,0.8c-0.8,1.9-2.3,3.5-4.3,4.7c-2,1.2-4.3,1.8-6.8,1.8c-2.5,0-4.7-0.6-6.8-1.9
					c-2-1.2-3.6-2.9-4.7-5C182.4-150.4,181.8-152.7,181.8-155.1z M185.3-156.4h19.3c-0.2-2.8-1.2-5-3.1-6.8s-4.1-2.7-6.6-2.7
					c-2.6,0-4.8,0.9-6.6,2.7C186.5-161.4,185.5-159.2,185.3-156.4z"/>
				<path class="st2" d="M210.5-142v-26.2h3.1v5.9c1.1-1.9,2.6-3.5,4.6-4.6c2-1.2,4.2-1.8,6.5-1.8c1.4,0,2.7,0.3,3.7,0.8
					c1,0.5,1.8,1.3,2.4,2.3c0.6,1,1,2.2,1.3,3.5c0.3,1.3,0.4,2.9,0.4,4.7v15.3h-3.4v-14.6c0-3.1-0.5-5.3-1.4-6.8
					c-0.9-1.4-2.3-2.1-4.2-2.1c-2.1,0-4,0.7-5.9,2.1c-1.9,1.4-3.1,3.2-3.7,5.4v16H210.5z"/>
				<g>
					<path class="st2" d="M238.5-145.4l1.6-2.3c2.9,2.4,6.1,3.6,9.4,3.6c2.1,0,3.8-0.4,5-1.3c1.3-0.9,1.9-2.1,1.9-3.6
						c0-0.6-0.1-1.1-0.3-1.5c-0.2-0.4-0.5-0.8-0.9-1.1c-0.4-0.3-0.9-0.6-1.6-0.9c-0.7-0.3-1.5-0.5-2.2-0.7c-0.7-0.2-1.7-0.4-2.9-0.8
						c-1.3-0.4-2.4-0.7-3.3-0.9c-0.8-0.2-1.6-0.5-2.4-0.9c-0.8-0.4-1.4-0.8-1.8-1.2c-0.4-0.4-0.7-0.9-1-1.6
						c-0.2-0.6-0.4-1.3-0.4-2.1c0-1.7,0.5-3.2,1.4-4.4c0.9-1.2,2.1-2.1,3.5-2.7c1.5-0.6,3.1-0.9,4.9-0.9c2,0,3.8,0.3,5.4,1
						c1.6,0.6,3,1.5,4,2.6l-1.7,2c-1-1-2.1-1.7-3.5-2.3c-1.4-0.5-2.8-0.8-4.3-0.8c-1.9,0-3.4,0.4-4.6,1.2s-1.8,2-1.8,3.6
						c0,0.6,0.1,1,0.3,1.4c0.2,0.4,0.4,0.7,0.7,1c0.3,0.3,0.7,0.5,1.3,0.8c0.6,0.2,1.2,0.4,1.8,0.6c0.6,0.2,1.4,0.4,2.5,0.7
						c1.5,0.4,2.7,0.7,3.7,1c1,0.3,1.9,0.6,2.8,1c0.9,0.4,1.6,0.9,2.1,1.4c0.5,0.5,0.9,1.1,1.2,1.8c0.3,0.7,0.4,1.5,0.4,2.4
						c0,2.4-0.9,4.3-2.8,5.7c-1.9,1.4-4.3,2.1-7.4,2.1c-2.1,0-4.1-0.3-6.1-1C241.6-143.2,239.9-144.1,238.5-145.4z"/>
				</g>
				<path class="st2" d="M60.5-116.1c0-2.4,0.4-4.6,1.3-6.8c0.9-2.2,2-4.1,3.5-5.8c1.5-1.7,3.2-3,5.3-4c2.1-1,4.3-1.5,6.6-1.5
					c1.9,0,3.8,0.3,5.6,1c1.8,0.7,3.3,1.6,4.7,2.8s2.5,2.5,3.5,4.1c1,1.5,1.7,3.2,2.2,5c0.5,1.8,0.8,3.5,0.8,5.3
					c0,2.4-0.4,4.6-1.3,6.8c-0.9,2.2-2,4.1-3.5,5.8c-1.5,1.7-3.2,3-5.3,4c-2.1,1-4.3,1.5-6.6,1.5c-2.4,0-4.7-0.5-6.8-1.5
					c-2.1-1-3.9-2.4-5.3-4.1c-1.4-1.7-2.6-3.6-3.4-5.8C60.9-111.5,60.5-113.8,60.5-116.1z M64-116.1c0,2.6,0.5,5,1.6,7.3
					c1.1,2.3,2.7,4.1,4.7,5.5c2,1.4,4.3,2.1,6.9,2.1c2,0,3.8-0.4,5.5-1.3c1.7-0.9,3.1-2,4.2-3.4c1.1-1.4,2-3,2.6-4.8
					c0.6-1.8,0.9-3.6,0.9-5.4c0-2.6-0.6-5-1.7-7.3s-2.7-4.1-4.7-5.5c-2-1.4-4.3-2.1-6.8-2.1c-2,0-3.8,0.4-5.5,1.3
					c-1.7,0.9-3.1,2-4.2,3.4s-2,3-2.6,4.8C64.4-119.7,64-117.9,64-116.1z"/>
				<path class="st2" d="M97.1-109v-15.4h3.4v14.8c0,5.9,2,8.9,6.1,8.9c2,0,3.9-0.7,5.7-2c1.7-1.3,3-3,3.8-5.2v-16.5h3.4v21.8
					c0,0.9,0.4,1.4,1.3,1.4v3c-0.7,0.1-1.2,0.1-1.5,0.1c-0.8,0-1.4-0.2-2-0.7c-0.5-0.5-0.8-1.1-0.8-1.7l-0.1-3.6
					c-1.1,2-2.7,3.6-4.6,4.7c-2,1.1-4.1,1.7-6.4,1.7c-2.7,0-4.8-1-6.2-2.9C97.8-102.5,97.1-105.3,97.1-109z"/>
				<path class="st2" d="M122.3-121.7v-2.7h3.6v-8.8h3.4v8.8h6v2.7h-6v17.8c0.1,0.9,0.4,1.6,1,2.1c0.6,0.5,1.3,0.7,2.2,0.7
					c1.4,0,2.8-0.4,4-1.2l0.9,2.8c0,0-0.2,0.1-0.5,0.2c-0.3,0.1-0.6,0.2-0.8,0.3c-0.2,0.1-0.5,0.2-0.9,0.3c-0.4,0.1-0.8,0.2-1.1,0.3
					c-0.3,0.1-0.8,0.2-1.2,0.2c-0.5,0.1-0.9,0.1-1.4,0.1c-1.6,0-2.9-0.4-3.9-1.3c-1.1-0.9-1.6-2.1-1.6-3.7v-18.7H122.3z"/>
				<path class="st2" d="M138.9-87.5v-36.9h3v5.1c1.1-1.7,2.5-3,4.2-4c1.7-1,3.6-1.5,5.6-1.5c2.3,0,4.5,0.6,6.4,1.9
					c1.9,1.3,3.4,3,4.5,5c1.1,2.1,1.6,4.3,1.6,6.6c0,2.5-0.5,4.7-1.5,6.8c-1,2.1-2.4,3.7-4.2,4.9c-1.8,1.2-3.9,1.8-6.2,1.8
					c-2.1,0-4-0.5-5.8-1.6c-1.7-1.1-3.1-2.5-4.2-4.3v16.1H138.9z M142.3-107.3c0.8,1.9,2,3.5,3.7,4.7c1.7,1.2,3.4,1.9,5.4,1.9
					c1.8,0,3.4-0.5,4.9-1.5c1.4-1,2.5-2.3,3.3-3.9c0.8-1.6,1.1-3.3,1.1-5.1c0-2.8-0.9-5.3-2.8-7.4c-1.9-2.1-4.2-3.2-6.9-3.2
					c-1.1,0-2.3,0.3-3.6,0.9c-1.3,0.6-2.4,1.4-3.3,2.4c-0.9,1-1.5,2.1-1.7,3.2V-107.3z"/>
				<path class="st2" d="M165.2-105.7c0-2.4,1-4.4,3.1-5.9s4.7-2.2,8-2.2c2.9,0,5.4,0.4,7.7,1.3v-2.4c0-2.3-0.7-4.1-2-5.5
					c-1.3-1.4-3.1-2-5.4-2c-2.7,0-5.5,1-8.4,3.1l-1.2-2.3c3.4-2.3,6.7-3.4,10-3.4c3.2,0,5.7,0.9,7.6,2.8c1.9,1.9,2.8,4.4,2.8,7.6
					v11.9c0,0.9,0.4,1.4,1.2,1.4v3c-0.8,0.1-1.2,0.1-1.4,0.1c-0.7,0-1.3-0.2-1.9-0.6c-0.5-0.4-0.8-1-0.9-1.8l-0.1-2.1
					c-1.1,1.5-2.6,2.7-4.5,3.5c-1.9,0.9-3.8,1.3-5.7,1.3c-2.6,0-4.8-0.8-6.5-2.3C166-101.6,165.2-103.5,165.2-105.7z M168.5-106
					c0,1.5,0.6,2.9,1.7,4c1.1,1.1,2.8,1.7,4.8,1.7c1.5,0,3.1-0.3,4.5-1c1.5-0.7,2.7-1.6,3.5-2.7c0.6-0.8,0.8-1.4,0.8-1.9v-4.3
					c-2.4-0.9-4.8-1.4-7.2-1.4c-2.5,0-4.5,0.5-6,1.5S168.5-107.7,168.5-106z"/>
				<path class="st2" d="M189.5-121.7v-2.7h3.6v-8.8h3.4v8.8h6v2.7h-6v17.8c0.1,0.9,0.4,1.6,1,2.1c0.6,0.5,1.3,0.7,2.2,0.7
					c1.4,0,2.7-0.4,4-1.2l0.9,2.8c0,0-0.2,0.1-0.5,0.2c-0.3,0.1-0.6,0.2-0.8,0.3c-0.2,0.1-0.5,0.2-0.9,0.3c-0.4,0.1-0.8,0.2-1.1,0.3
					c-0.3,0.1-0.8,0.2-1.2,0.2c-0.5,0.1-0.9,0.1-1.4,0.1c-1.6,0-2.9-0.4-3.9-1.3c-1.1-0.9-1.6-2.1-1.6-3.7v-18.7H189.5z"/>
				<path class="st2" d="M206.1-129.9v-5h3.4v5H206.1z M206.1-98.2v-26.2h3.4v26.2H206.1z"/>
				<path class="st2" d="M212.6-111.4c0-2.4,0.6-4.7,1.7-6.7c1.1-2.1,2.7-3.7,4.7-4.9c2-1.2,4.3-1.8,6.7-1.8c2.5,0,4.7,0.6,6.7,1.9
					c2,1.2,3.5,2.9,4.6,4.9c1.1,2,1.6,4.3,1.7,6.6c0,0.7,0,1.1-0.1,1.4h-22.4c0.2,2.8,1.2,5.2,3.1,7c1.9,1.9,4.1,2.8,6.6,2.8
					c1.8,0,3.4-0.4,4.9-1.3s2.6-2,3.1-3.4l3,0.8c-0.8,1.9-2.3,3.5-4.3,4.7c-2,1.2-4.3,1.8-6.8,1.8c-2.5,0-4.7-0.6-6.8-1.9
					c-2-1.2-3.6-2.9-4.7-5C213.2-106.6,212.6-108.9,212.6-111.4z M216.2-112.6h19.3c-0.2-2.8-1.2-5-3.1-6.8
					c-1.8-1.8-4.1-2.7-6.6-2.7c-2.6,0-4.8,0.9-6.6,2.7C217.3-117.7,216.3-115.4,216.2-112.6z"/>
				<path class="st2" d="M241.4-98.2v-26.2h3.1v5.9c1.1-1.9,2.6-3.5,4.6-4.6c2-1.2,4.2-1.8,6.5-1.8c1.4,0,2.7,0.3,3.7,0.8
					c1,0.5,1.8,1.3,2.4,2.3c0.6,1,1,2.2,1.3,3.5c0.3,1.3,0.4,2.9,0.4,4.7v15.3H260v-14.6c0-3.1-0.5-5.3-1.4-6.8
					c-0.9-1.4-2.3-2.1-4.2-2.1c-2.1,0-4,0.7-5.9,2.1c-1.9,1.4-3.1,3.2-3.7,5.4v16H241.4z"/>
				<path class="st2" d="M265.3-121.7v-2.7h3.6v-8.8h3.4v8.8h6v2.7h-6v17.8c0.1,0.9,0.4,1.6,1,2.1c0.6,0.5,1.3,0.7,2.2,0.7
					c1.4,0,2.8-0.4,4-1.2l0.9,2.8c0,0-0.2,0.1-0.5,0.2c-0.3,0.1-0.6,0.2-0.8,0.3c-0.2,0.1-0.5,0.2-0.9,0.3c-0.4,0.1-0.8,0.2-1.1,0.3
					c-0.3,0.1-0.8,0.2-1.2,0.2c-0.5,0.1-0.9,0.1-1.4,0.1c-1.6,0-2.9-0.4-3.9-1.3c-1.1-0.9-1.6-2.1-1.6-3.7v-18.7H265.3z"/>
				<path class="st2" d="M290.8-116.3c0-2.2,0.4-4.3,1.2-6.4c0.8-2.1,1.9-4,3.3-5.7c1.4-1.7,3.2-3.1,5.4-4.1c2.2-1,4.6-1.6,7.2-1.6
					c3.1,0,5.8,0.7,8,2.1c2.3,1.4,4,3.3,5.1,5.7l-2.8,1.7c-0.5-1.2-1.2-2.2-2-3c-0.8-0.9-1.7-1.5-2.7-2c-0.9-0.5-1.9-0.8-2.9-1.1
					c-1-0.2-2-0.3-3-0.3c-1.7,0-3.2,0.3-4.6,0.9c-1.4,0.6-2.7,1.3-3.7,2.3c-1,1-1.9,2.1-2.7,3.4c-0.7,1.3-1.3,2.6-1.7,4
					c-0.4,1.4-0.5,2.9-0.5,4.3c0,2.6,0.6,5.1,1.7,7.4c1.2,2.3,2.8,4.2,4.9,5.6c2.1,1.4,4.3,2.1,6.8,2.1c1.4,0,2.8-0.2,4.1-0.7
					c1.4-0.5,2.7-1.2,3.9-2.2c1.3-1,2.2-2.3,3-3.8l2.9,1.5c-0.7,1.7-1.9,3.2-3.5,4.5c-1.6,1.3-3.3,2.2-5.1,2.9
					c-1.9,0.6-3.7,0.9-5.6,0.9c-1.9,0-3.7-0.3-5.5-1c-1.8-0.7-3.3-1.6-4.6-2.8s-2.5-2.6-3.5-4.1c-1-1.5-1.8-3.2-2.3-5
					C291.1-112.7,290.8-114.5,290.8-116.3z"/>
				<path class="st2" d="M322.7-111.4c0-2.4,0.6-4.7,1.7-6.7s2.7-3.7,4.7-4.9c2-1.2,4.3-1.8,6.7-1.8c2.5,0,4.7,0.6,6.7,1.9
					c2,1.2,3.5,2.9,4.6,4.9c1.1,2,1.6,4.3,1.7,6.6c0,0.7,0,1.1-0.1,1.4h-22.4c0.2,2.8,1.2,5.2,3.1,7c1.9,1.9,4.1,2.8,6.6,2.8
					c1.8,0,3.4-0.4,4.9-1.3c1.5-0.9,2.6-2,3.1-3.4l3,0.8c-0.8,1.9-2.3,3.5-4.3,4.7c-2,1.2-4.3,1.8-6.8,1.8c-2.5,0-4.7-0.6-6.8-1.9
					c-2-1.2-3.6-2.9-4.7-5C323.2-106.6,322.7-108.9,322.7-111.4z M326.2-112.6h19.3c-0.2-2.8-1.2-5-3.1-6.8
					c-1.8-1.8-4.1-2.7-6.6-2.7c-2.6,0-4.8,0.9-6.6,2.7C327.4-117.7,326.4-115.4,326.2-112.6z"/>
				<path class="st2" d="M351.4-98.2v-26.2h3.1v5.9c1.1-1.9,2.6-3.5,4.6-4.6c2-1.2,4.2-1.8,6.5-1.8c1.4,0,2.7,0.3,3.7,0.8
					c1,0.5,1.8,1.3,2.4,2.3c0.6,1,1,2.2,1.3,3.5c0.3,1.3,0.4,2.9,0.4,4.7v15.3H370v-14.6c0-3.1-0.5-5.3-1.4-6.8
					c-0.9-1.4-2.3-2.1-4.2-2.1c-2.1,0-4,0.7-5.9,2.1c-1.9,1.4-3.1,3.2-3.7,5.4v16H351.4z"/>
				<path class="st2" d="M375.4-121.7v-2.7h3.6v-8.8h3.4v8.8h6v2.7h-6v17.8c0.1,0.9,0.4,1.6,1,2.1c0.6,0.5,1.3,0.7,2.2,0.7
					c1.4,0,2.8-0.4,4-1.2l0.9,2.8c0,0-0.2,0.1-0.5,0.2c-0.3,0.1-0.6,0.2-0.8,0.3c-0.2,0.1-0.5,0.2-0.9,0.3c-0.4,0.1-0.8,0.2-1.1,0.3
					c-0.3,0.1-0.8,0.2-1.2,0.2c-0.5,0.1-0.9,0.1-1.4,0.1c-1.6,0-2.9-0.4-3.9-1.3c-1.1-0.9-1.6-2.1-1.6-3.7v-18.7H375.4z"/>
				<path class="st2" d="M390.2-111.4c0-2.4,0.6-4.7,1.7-6.7s2.7-3.7,4.7-4.9c2-1.2,4.3-1.8,6.7-1.8c2.5,0,4.7,0.6,6.7,1.9
					c2,1.2,3.5,2.9,4.6,4.9c1.1,2,1.6,4.3,1.7,6.6c0,0.7,0,1.1-0.1,1.4h-22.4c0.2,2.8,1.2,5.2,3.1,7s4.1,2.8,6.6,2.8
					c1.8,0,3.4-0.4,4.9-1.3c1.5-0.9,2.6-2,3.1-3.4l3,0.8c-0.8,1.9-2.3,3.5-4.3,4.7c-2,1.2-4.3,1.8-6.8,1.8c-2.5,0-4.7-0.6-6.8-1.9
					c-2-1.2-3.6-2.9-4.7-5C390.8-106.6,390.2-108.9,390.2-111.4z M393.8-112.6h19.3c-0.2-2.8-1.2-5-3.1-6.8
					c-1.8-1.8-4.1-2.7-6.6-2.7c-2.6,0-4.8,0.9-6.6,2.7C394.9-117.7,393.9-115.4,393.8-112.6z"/>
				<path class="st2" d="M419-98.2v-26.2h3.2v6.2c0.9-1.9,2.1-3.4,3.6-4.6c1.5-1.2,3.1-1.8,4.7-1.8c0.8,0,1.3,0,1.5,0v3.1
					c-2.3,0.1-4.3,0.7-6,1.9c-1.7,1.2-2.9,2.9-3.6,5v16.3H419z"/>
			</g>
			<path class="st2" d="M234.1-168.6l0.8-5h-1v-4.6h2.7v4.6l-1.1,5H234.1z"/>
		</g>
		<g class="st4">
			<path class="st1" d="M68.1-188.2c-0.9,0-1.8-0.2-2.5-0.5c-0.8-0.4-1.4-0.8-2-1.5c-0.5-0.6-1-1.3-1.3-2.1
				c-0.3-0.8-0.4-1.6-0.4-2.4c0-0.8,0.2-1.7,0.5-2.4c0.3-0.8,0.8-1.5,1.3-2.1c0.6-0.6,1.2-1.1,2-1.4c0.8-0.4,1.6-0.5,2.5-0.5
				c0.9,0,1.8,0.2,2.5,0.6c0.8,0.4,1.4,0.9,1.9,1.5c0.5,0.6,1,1.3,1.3,2.1c0.3,0.8,0.4,1.6,0.4,2.4c0,0.8-0.2,1.7-0.5,2.4
				c-0.3,0.8-0.7,1.5-1.3,2c-0.5,0.6-1.2,1.1-2,1.4C69.8-188.4,69-188.2,68.1-188.2z M64.4-194.7c0,0.5,0.1,1.1,0.3,1.6
				c0.2,0.5,0.4,1,0.7,1.4c0.3,0.4,0.7,0.7,1.2,0.9c0.5,0.2,1,0.4,1.6,0.4c0.6,0,1.1-0.1,1.6-0.4c0.5-0.2,0.8-0.6,1.2-1
				c0.3-0.4,0.6-0.9,0.7-1.4s0.2-1,0.2-1.5c0-0.5-0.1-1.1-0.3-1.6c-0.2-0.5-0.4-1-0.7-1.4c-0.3-0.4-0.7-0.7-1.2-0.9
				c-0.5-0.2-1-0.4-1.6-0.4c-0.6,0-1.1,0.1-1.6,0.4c-0.5,0.2-0.9,0.6-1.2,1c-0.3,0.4-0.5,0.9-0.7,1.4
				C64.5-195.7,64.4-195.2,64.4-194.7z"/>
			<path class="st1" d="M76.6-188.3V-201h2.5v12.7H76.6z"/>
			<path class="st1" d="M89.8-197.7c-0.1-0.1-0.2-0.2-0.5-0.3c-0.2-0.1-0.5-0.3-0.8-0.4c-0.3-0.1-0.7-0.3-1-0.3
				c-0.4-0.1-0.7-0.1-1.1-0.1c-0.7,0-1.2,0.1-1.5,0.4c-0.3,0.3-0.5,0.6-0.5,1.1c0,0.3,0.1,0.5,0.2,0.7c0.1,0.2,0.3,0.3,0.5,0.5
				c0.2,0.1,0.5,0.3,0.9,0.4c0.4,0.1,0.8,0.2,1.3,0.3c0.6,0.2,1.2,0.3,1.7,0.5c0.5,0.2,0.9,0.4,1.3,0.7c0.4,0.3,0.6,0.6,0.8,1
				c0.2,0.4,0.3,0.9,0.3,1.5c0,0.7-0.1,1.3-0.4,1.7c-0.3,0.5-0.6,0.9-1,1.2c-0.4,0.3-0.9,0.5-1.5,0.7c-0.6,0.1-1.2,0.2-1.8,0.2
				c-1,0-1.9-0.1-2.8-0.4c-0.9-0.3-1.8-0.7-2.5-1.2l1.1-2.1c0.1,0.1,0.3,0.2,0.6,0.4c0.3,0.2,0.6,0.3,1,0.5c0.4,0.2,0.8,0.3,1.3,0.4
				c0.5,0.1,0.9,0.2,1.4,0.2c1.4,0,2-0.4,2-1.3c0-0.3-0.1-0.5-0.2-0.7c-0.2-0.2-0.4-0.4-0.7-0.5c-0.3-0.1-0.6-0.3-1-0.4
				c-0.4-0.1-0.9-0.3-1.4-0.4c-0.6-0.2-1.1-0.3-1.6-0.5c-0.4-0.2-0.8-0.4-1.1-0.7c-0.3-0.3-0.5-0.6-0.7-0.9
				c-0.1-0.4-0.2-0.8-0.2-1.3c0-0.6,0.1-1.2,0.4-1.7c0.2-0.5,0.6-0.9,1-1.3c0.4-0.3,0.9-0.6,1.5-0.8c0.6-0.2,1.2-0.3,1.8-0.3
				c0.9,0,1.7,0.1,2.5,0.4c0.8,0.3,1.4,0.6,2,1L89.8-197.7z"/>
			<path class="st1" d="M104.4-201v12.7h-2.5v-5.4h-5.8v5.4h-2.5V-201h2.5v5.1h5.8v-5.1H104.4z"/>
			<path class="st1" d="M116.3-190.5v2.2h-8.8V-201h8.7v2.2H110v3.1h5.4v2H110v3.3H116.3z"/>
			<path class="st1" d="M118.9-188.3V-201h2.5v12.7H118.9z"/>
		</g>
	</g>
</g>
</svg>
